<svg width="25" height="25" viewBox="0 0 25 25" fill="none" xmlns="http://www.w3.org/2000/svg">
<path d="M12.5 0C5.63431 0 0 5.63431 0 12.5C0 18.3588 4.1111 23.6809 9.57031 25V20.8645C9.02939 20.9829 8.53157 20.9864 7.98092 20.8241C7.2422 20.606 6.64196 20.1139 6.1964 19.3636C5.9124 18.8845 5.40905 18.3649 4.88396 18.4031L4.75521 16.9439C5.89066 16.8467 6.87294 17.6357 7.45602 18.6153C7.71503 19.051 8.01315 19.3064 8.39577 19.4193C8.7656 19.5282 9.16271 19.4759 9.62543 19.3125C9.74159 18.3861 10.166 18.0393 10.4866 17.551V17.5503C7.23076 17.0647 5.93319 15.3374 5.41821 13.974C4.73576 12.1637 5.10197 9.90219 6.30875 8.47301C6.33221 8.44517 6.37455 8.37231 6.35815 8.32138C5.80482 6.64997 6.47907 5.26733 6.50387 5.12066C7.14245 5.30949 7.24621 4.93069 9.27773 6.16493L9.62887 6.37589C9.77573 6.46343 9.72958 6.41346 9.87644 6.4024C10.7246 6.17199 11.6188 6.04477 12.4998 6.03333C13.3875 6.04477 14.2759 6.17199 15.1592 6.41174L15.2729 6.42319C15.263 6.42166 15.3038 6.41594 15.3723 6.37512C17.91 4.83799 17.8188 5.34039 18.4994 5.11913C18.524 5.266 19.1893 6.67114 18.6419 8.32138C18.568 8.54874 20.842 10.631 19.5816 13.9734C19.0666 15.3374 17.7692 17.0647 14.5134 17.5503V17.551C14.9307 18.1871 15.4322 18.5255 15.4295 19.8378V25C20.8889 23.6809 24.9998 18.3588 24.9998 12.5C25 5.63431 19.3657 0 12.5 0V0Z" fill="white"/>
</svg>
