<svg width="25" height="25" viewBox="0 0 25 25" fill="none" xmlns="http://www.w3.org/2000/svg">
<path d="M24.9249 7.3464C24.864 6.01582 24.6527 5.10716 24.3437 4.31217C24.0299 3.47808 23.5378 2.72257 22.9019 2.0981C22.2776 1.46218 21.5219 0.969894 20.6879 0.655942C19.8927 0.34714 18.9842 0.135995 17.6537 0.0755316C16.3206 0.014496 15.8947 0 12.5 0C9.1053 0 8.67939 0.014496 7.34634 0.0751501C6.01578 0.135995 5.10731 0.347331 4.31213 0.656324C3.47805 0.970085 2.72255 1.46218 2.09808 2.0981C1.46217 2.72238 0.969887 3.47789 0.655937 4.31198C0.347137 5.10716 0.135994 6.01582 0.075531 7.34621C0.0144958 8.67946 0 9.10518 0 12.4999C0 15.8948 0.0144958 16.3207 0.075531 17.6538C0.136185 18.9842 0.347519 19.8928 0.656509 20.688C0.970268 21.5219 1.46236 22.2776 2.09827 22.9019C2.72255 23.5378 3.47824 24.0299 4.31232 24.3437C5.10731 24.6529 6.01597 24.864 7.34653 24.9248C8.67977 24.9857 9.10549 25 12.5002 25C15.8949 25 16.3208 24.9857 17.6538 24.9248C18.9844 24.864 19.8929 24.6529 20.6881 24.3437C22.3671 23.6944 23.6944 22.3671 24.3437 20.688C24.6529 19.8928 24.864 18.9842 24.9249 17.6538C24.9855 16.3205 25 15.8948 25 12.5001C25 9.10518 24.9855 8.67946 24.9249 7.3464V7.3464ZM22.6748 17.5514C22.6192 18.7702 22.4155 19.432 22.2445 19.8724C21.8239 20.9627 20.9623 21.8242 19.8721 22.2448C19.4317 22.4159 18.7698 22.6196 17.551 22.6751C16.2333 22.7354 15.8379 22.748 12.5 22.748C9.16195 22.748 8.76675 22.7354 7.44877 22.6751C6.23016 22.6196 5.56831 22.4159 5.12772 22.2448C4.58488 22.0444 4.09374 21.7249 3.69053 21.3096C3.2753 20.9064 2.95582 20.4155 2.75536 19.8724C2.58427 19.432 2.38056 18.7702 2.32506 17.5514C2.26498 16.2334 2.2522 15.838 2.2522 12.5003C2.2522 9.1624 2.26498 8.76719 2.32506 7.44902C2.38075 6.23021 2.58427 5.56836 2.75536 5.12795C2.95582 4.58492 3.27549 4.09377 3.69053 3.69056C4.09374 3.27532 4.58488 2.95584 5.12791 2.75557C5.56831 2.58429 6.23016 2.38077 7.44896 2.32508C8.76694 2.26499 9.16233 2.25221 12.5 2.25221H12.4998C15.8375 2.25221 16.2329 2.26499 17.551 2.32527C18.7698 2.38077 19.4315 2.58448 19.8721 2.75557C20.4149 2.95603 20.9061 3.27551 21.3093 3.69056C21.7245 4.09377 22.044 4.58492 22.2443 5.12795C22.4155 5.56836 22.6192 6.23021 22.6748 7.44902C22.7348 8.767 22.7476 9.1624 22.7476 12.5001C22.7476 15.838 22.735 16.2332 22.6748 17.5514Z" fill="url(#paint0_linear)"/>
<path d="M12.4997 6.08105C8.95473 6.08105 6.08093 8.95507 6.08093 12.5001C6.08093 16.0451 8.95473 18.9189 12.4997 18.9189C16.0449 18.9189 18.9187 16.0451 18.9187 12.5001C18.9187 8.95507 16.0449 6.08105 12.4997 6.08105V6.08105ZM12.4997 16.6667C10.1987 16.6665 8.33313 14.8011 8.33332 12.4999C8.33332 10.1989 10.1987 8.33327 12.4999 8.33327C14.8011 8.33346 16.6665 10.1989 16.6665 12.4999C16.6665 14.8011 14.8009 16.6667 12.4997 16.6667V16.6667Z" fill="url(#paint1_linear)"/>
<path d="M20.6724 5.82759C20.6724 6.65596 20.0009 7.32755 19.1725 7.32755C18.3439 7.32755 17.6724 6.65596 17.6724 5.82759C17.6724 4.99904 18.3439 4.32745 19.1725 4.32745C20.0009 4.32745 20.6724 4.99904 20.6724 5.82759V5.82759Z" fill="url(#paint2_linear)"/>
<defs>
<linearGradient id="paint0_linear" x1="2.09796" y1="22.902" x2="22.9022" y2="2.09793" gradientUnits="userSpaceOnUse">
<stop stop-color="#FFD600"/>
<stop offset="0.5" stop-color="#FF0100"/>
<stop offset="1" stop-color="#D800B9"/>
</linearGradient>
<linearGradient id="paint1_linear" x1="7.96101" y1="17.0389" x2="17.0388" y2="7.96121" gradientUnits="userSpaceOnUse">
<stop stop-color="#FF6400"/>
<stop offset="0.5" stop-color="#FF0100"/>
<stop offset="1" stop-color="#FD0056"/>
</linearGradient>
<linearGradient id="paint2_linear" x1="18.1118" y1="6.88815" x2="20.2331" y2="4.76688" gradientUnits="userSpaceOnUse">
<stop stop-color="#F30072"/>
<stop offset="1" stop-color="#E50097"/>
</linearGradient>
</defs>
</svg>
